<svg xmlns="http://www.w3.org/2000/svg" viewBox="0 0 64 64" id="storytelling"><path d="M25 8v12a1 1 0 0 0 1 1h12a1 1 0 0 0 1-1V8a1 1 0 0 0-1-1H26a1 1 0 0 0-1 1zm6 1h2v3h-2V9zm-4 0h2v4a1 1 0 0 0 1 1h4a1 1 0 0 0 1-1V9h2v10H27V9zm-1.913 36.884c-.309 1.985.204 3.931 1.443 5.479.961 1.201 1.47 2.533 1.47 3.854V56a1 1 0 0 0 1 1h6a1 1 0 0 0 1-1v-.61c0-1.431.511-2.847 1.438-3.988A7.01 7.01 0 0 0 39 47a7.006 7.006 0 0 0-2.349-5.231 7.048 7.048 0 0 0-5.494-1.719c-3.047.357-5.6 2.811-6.07 5.834zm6.304-3.848a4.96 4.96 0 0 1 3.931 1.227A5.009 5.009 0 0 1 37 47a4.933 4.933 0 0 1-1.114 3.141A8.375 8.375 0 0 0 34.009 55h-4.013c-.051-1.706-.707-3.392-1.905-4.888-.885-1.104-1.25-2.497-1.028-3.921.335-2.152 2.155-3.9 4.328-4.155zM35 59a1 1 0 0 0-1-1h-4a1 1 0 0 0 0 2h4a1 1 0 0 0 1-1zm-1 3a1 1 0 0 0-1-1h-2a1 1 0 0 0 0 2h2a1 1 0 0 0 1-1z"></path><path d="M32 46v-2c-1.654 0-3 1.346-3 3h2c0-.552.449-1 1-1zm20.447-28.895a.997.997 0 0 0-1.047.095l-4 3a1 1 0 0 0 0 1.6l4 3a.997.997 0 0 0 1.047.095c.339-.17.553-.516.553-.895v-2h2v11h2V21a1 1 0 0 0-1-1h-3v-2c0-.379-.214-.725-.553-.895zM51 22l-1.333-1L51 20v2zm-39.447 2.895A1.008 1.008 0 0 0 12.6 24.8l4-3a.998.998 0 0 0 0-1.6l-4-3a1.001 1.001 0 0 0-1.6.8v2H8a1 1 0 0 0-1 1v12h2V22h2v2c0 .379.214.725.553.895zM13 20l1.333 1L13 22v-2zm30 39h13a1 1 0 0 0 1-1v-5h2a1.001 1.001 0 0 0 .8-1.6l-3-4c-.377-.504-1.223-.504-1.6 0l-3 4A.999.999 0 0 0 53 53h2v4H43v2zm13-9.333L57 51h-2l1-1.333zM8 59h11v-2H9v-4h2a1.001 1.001 0 0 0 .8-1.6l-3-4c-.377-.504-1.223-.504-1.6 0l-3 4A.999.999 0 0 0 5 53h2v5a1 1 0 0 0 1 1zm0-9.333L9 51H7l1-1.333zm20.105-15.22c.17.339.516.553.895.553h2v3h2v-3h2a1.001 1.001 0 0 0 .8-1.6l-3-4c-.377-.504-1.223-.504-1.6 0l-3 4a1.001 1.001 0 0 0-.095 1.047zM32 31.667 33 33h-2l1-1.333zM19.709 18.244c.233.675.524 1.335.866 1.963l1.757-.955a10.988 10.988 0 0 1-.732-1.66l-1.891.652zm19.409 6.636-1.096-1.674c-.505.331-1.042.623-1.596.867l.808 1.83a13.188 13.188 0 0 0 1.884-1.023zm-14.556-2.776a11.04 11.04 0 0 1-1.233-1.335l-1.575 1.232c.438.562.928 1.091 1.455 1.575l1.353-1.472zm-5.383-5.939 1.973-.332c-.1-.593-.151-1.202-.152-1.811l-2 .004c.001.718.062 1.438.179 2.139zm15.97-14.781-.482 1.941a11.01 11.01 0 0 1 1.719.583l.798-1.834a13.107 13.107 0 0 0-2.035-.69zM19.171 11.89l1.974.322c.098-.597.246-1.188.44-1.76l-1.894-.645a12.95 12.95 0 0 0-.52 2.083zm9.6-10.486c-.692.177-1.375.413-2.029.703l.811 1.828a11.029 11.029 0 0 1 1.714-.594l-.496-1.937zm4.101 1.631.161-1.994a13.02 13.02 0 0 0-2.145.007l.167 1.992a11.249 11.249 0 0 1 1.817-.005zM20.55 7.838l1.761.949c.286-.53.62-1.043.992-1.523l-1.581-1.225a13.146 13.146 0 0 0-1.172 1.799zM45 13.973l-.475-.012L43 14c0 .607-.05 1.217-.148 1.811l1.973.326c.116-.701.175-1.42.175-2.164zm-5.546 8.119 1.356 1.469a13.21 13.21 0 0 0 1.452-1.578l-1.578-1.229c-.371.475-.785.926-1.23 1.338zm4.845-3.872-1.892-.65a11.023 11.023 0 0 1-.73 1.663l1.759.953c.341-.63.631-1.291.863-1.966zm-1.906-7.834c.199.573.351 1.164.451 1.757l1.972-.332a12.79 12.79 0 0 0-.534-2.081l-1.889.656zm-1.736-3.174c.374.476.71.985 1 1.516l1.754-.961a13.048 13.048 0 0 0-1.181-1.789l-1.573 1.234zM23.171 4.458l1.358 1.469c.445-.412.926-.789 1.43-1.121l-1.1-1.67c-.594.39-1.163.836-1.688 1.322zm1.732 20.435c.599.392 1.234.734 1.889 1.021l.802-1.832a10.977 10.977 0 0 1-1.597-.863l-1.094 1.674zM37.984 4.769c.505.329.989.703 1.438 1.113l1.349-1.477a13.07 13.07 0 0 0-1.697-1.312l-1.09 1.676zM29.312 24.67l-.487 1.939c.691.174 1.403.291 2.118.349l.16-1.994a10.987 10.987 0 0 1-1.791-.294zm5.4-.006c-.586.148-1.188.249-1.792.3l.166 1.992a13.054 13.054 0 0 0 2.116-.353l-.49-1.939zM8 44c2.206 0 4-1.794 4-4s-1.794-4-4-4-4 1.794-4 4 1.794 4 4 4zm0-6c1.103 0 2 .897 2 2s-.897 2-2 2-2-.897-2-2 .897-2 2-2zm48 6c2.206 0 4-1.794 4-4s-1.794-4-4-4-4 1.794-4 4 1.794 4 4 4zm0-6c1.103 0 2 .897 2 2s-.897 2-2 2-2-.897-2-2 .897-2 2-2z"></path></svg>